<?xml version="1.0" encoding="UTF-8"?>
<svg version="1.1" xmlns="http://www.w3.org/2000/svg" width="857" height="704">
<path d="M0 0 C0.93150879 0.00483398 1.86301758 0.00966797 2.82275391 0.01464844 C6.19450543 0.04124373 9.56590317 0.08319416 12.9375 0.125 C14.37581127 0.13797926 15.81412526 0.15065903 17.25244141 0.16308594 C40.07515517 0.38048258 62.35843388 1.76911509 84.9375 5.125 C85.95021973 5.26776367 86.96293945 5.41052734 88.00634766 5.55761719 C114.36636432 9.32008025 140.81305528 16.38070797 165.9375 25.125 C167.11183594 25.52493164 168.28617188 25.92486328 169.49609375 26.33691406 C206.00685416 38.79346461 243.6692848 54.40296053 275.22021484 76.91259766 C277.09318085 78.23491059 278.99036524 79.51602501 280.89453125 80.79296875 C289.34963638 86.48107677 297.45851992 92.48894299 305.39160156 98.88330078 C306.81282361 100.02485721 308.24572825 101.15182873 309.6796875 102.27734375 C315.66540923 106.98573857 321.33668577 111.96696859 326.9375 117.125 C327.49066895 117.62773437 328.04383789 118.13046875 328.61376953 118.6484375 C341.7642785 130.60149594 353.85735929 143.21942341 364.9375 157.125 C365.98778708 158.40902345 367.04001188 159.69146338 368.09375 160.97265625 C368.65634521 161.65851807 369.21894043 162.34437988 369.79858398 163.05102539 C370.88754118 164.37843124 371.97805309 165.70456413 373.07055664 167.02905273 C404.58983169 205.62942451 424.13503647 251.3728943 432.9375 300.125 C433.11861328 301.07890625 433.29972656 302.0328125 433.48632812 303.015625 C440.31093887 340.68949095 435.45114016 379.68731559 424.9375 416.125 C424.52902832 417.5486084 424.52902832 417.5486084 424.11230469 419.00097656 C420.13133219 432.43615703 414.39537008 445.03940672 408.4375 457.6875 C407.8991452 458.83206665 407.8991452 458.83206665 407.34991455 459.99975586 C401.27595133 472.84955017 394.80738473 485.46470456 386.625 497.125 C386.16625488 497.7852417 385.70750977 498.4454834 385.23486328 499.12573242 C380.80049686 505.44059028 376.08528772 511.51910916 371.23535156 517.51855469 C369.98051736 519.07175429 368.73615593 520.63339687 367.4921875 522.1953125 C363.76777518 526.82873393 359.99483687 531.23504075 355.70776367 535.35449219 C353.99394117 537.06855104 352.42549361 538.84172903 350.85546875 540.6875 C339.66014034 553.55740639 327.39730043 565.67307673 313.66943359 575.81201172 C311.04788619 577.79942107 308.52342837 579.90022501 305.98730469 581.99487305 C298.21315302 588.41438157 290.24184082 594.41208468 281.9375 600.125 C281.38368652 600.51187988 280.82987305 600.89875977 280.25927734 601.29736328 C253.31338589 620.09155648 223.50502996 635.15316988 192.9375 647.125 C191.80860352 647.57439941 190.67970703 648.02379883 189.51660156 648.48681641 C161.65353107 659.5530053 133.28807425 666.99618618 103.9375 673.125 C102.55691406 673.41866455 102.55691406 673.41866455 101.1484375 673.71826172 C77.01270991 678.81328533 52.52626701 680.70334242 27.9375 682.125 C26.87756836 682.18961426 25.81763672 682.25422852 24.72558594 682.32080078 C-14.91948973 684.6798778 -56.3317298 680.92293755 -95.0625 672.125 C-96.39354424 671.82872911 -97.72459948 671.53250762 -99.05566406 671.23632812 C-131.04616272 664.05174597 -162.35302087 654.07135621 -192.0625 640.125 C-194.07280738 639.20549019 -196.08322822 638.28622843 -198.09375 637.3671875 C-217.97206041 628.16213917 -236.961625 617.47247642 -255.0625 605.125 C-256.3455603 604.25029053 -256.3455603 604.25029053 -257.65454102 603.35791016 C-268.41679447 595.97253111 -278.96593081 588.40042097 -289.0625 580.125 C-289.85116455 579.48280518 -289.85116455 579.48280518 -290.65576172 578.82763672 C-297.46268496 573.26213577 -304.00058442 567.42622877 -310.4375 561.4375 C-311.09153809 560.83196289 -311.74557617 560.22642578 -312.41943359 559.60253906 C-316.33463738 555.92174875 -319.91602247 552.07482398 -323.41455078 547.99780273 C-325.7488317 545.34502215 -328.26119047 542.94559229 -330.8125 540.5 C-336.59985439 534.80946345 -341.57838048 528.70475873 -346.46240234 522.234375 C-348.27767189 519.84134343 -350.11659254 517.46747487 -351.95703125 515.09375 C-366.02537647 496.8962541 -377.47893689 478.58432957 -388.0625 458.125 C-388.67786621 456.94550781 -388.67786621 456.94550781 -389.30566406 455.7421875 C-395.83913837 443.08987461 -400.40031211 429.66694034 -404.99951172 416.21630859 C-405.84213787 413.76584182 -406.70895245 411.32843095 -407.59765625 408.89453125 C-408.93856562 405.00977452 -410.04934302 401.10428084 -411.0625 397.125 C-411.32047363 396.15030762 -411.57844727 395.17561523 -411.84423828 394.17138672 C-423.04805443 350.11165324 -419.74345242 301.94038346 -403.93505859 259.50195312 C-403.19721543 257.49198081 -402.52293395 255.45884814 -401.86328125 253.421875 C-391.7584247 222.31845037 -373.43702754 191.71171245 -352.91601562 166.42089844 C-351.35840297 164.4915268 -349.84438651 162.54191627 -348.3515625 160.5625 C-341.17222412 151.21080569 -333.08473593 142.87310088 -324.75 134.5625 C-324.1846051 133.99797119 -323.61921021 133.43344238 -323.03668213 132.85180664 C-316.88992795 126.72932681 -310.6668977 120.75674107 -304.0625 115.125 C-302.45481627 113.67054483 -300.85010285 112.21279105 -299.25 110.75 C-277.6342088 91.3252194 -253.22844895 75.52047391 -228.0625 61.125 C-227.35464355 60.71926758 -226.64678711 60.31353516 -225.91748047 59.89550781 C-159.27218906 22.13150923 -76.66263822 -0.45587297 0 0 Z M24.9375 32.125 C25.9375 36.125 25.9375 36.125 25.9375 36.125 Z M25.9375 39.125 C25.9375 44.735 25.9375 50.345 25.9375 56.125 C26.2675 56.125 26.5975 56.125 26.9375 56.125 C27.90790422 50.19475197 27.83066269 45.06109666 26.9375 39.125 C26.6075 39.125 26.2775 39.125 25.9375 39.125 Z M24.9375 58.125 C25.9375 60.125 25.9375 60.125 25.9375 60.125 Z M22.9375 67.125 C23.9375 69.125 23.9375 69.125 23.9375 69.125 Z M21.9375 70.125 C22.9375 72.125 22.9375 72.125 22.9375 72.125 Z M-26.0625 156.125 C-25.0625 160.125 -25.0625 160.125 -25.0625 160.125 Z M-27.0625 161.125 C-27.0625 162.775 -27.0625 164.425 -27.0625 166.125 C-26.7325 166.125 -26.4025 166.125 -26.0625 166.125 C-26.0625 164.475 -26.0625 162.825 -26.0625 161.125 C-26.3925 161.125 -26.7225 161.125 -27.0625 161.125 Z M-28.0625 166.125 C-28.0625 169.095 -28.0625 172.065 -28.0625 175.125 C-27.7325 175.125 -27.4025 175.125 -27.0625 175.125 C-27.0625 172.155 -27.0625 169.185 -27.0625 166.125 C-27.3925 166.125 -27.7225 166.125 -28.0625 166.125 Z M-29.0625 177.125 C-29.0625 179.435 -29.0625 181.745 -29.0625 184.125 C-28.7325 184.125 -28.4025 184.125 -28.0625 184.125 C-28.0625 181.815 -28.0625 179.505 -28.0625 177.125 C-28.3925 177.125 -28.7225 177.125 -29.0625 177.125 Z M-29.0625 187.125 C-28.0625 191.125 -28.0625 191.125 -28.0625 191.125 Z M218.66845703 187.27441406 C191.52119921 188.05065718 191.52119921 188.05065718 164.9375 193.125 C164.21449707 193.30981934 163.49149414 193.49463867 162.74658203 193.68505859 C150.87806663 196.77993974 142.63863172 202.50338407 133.58203125 210.65820312 C131.57186008 212.45112302 129.4700837 214.12031701 127.375 215.8125 C120.62474258 221.91284205 116.51956508 229.58857488 112.625 237.6875 C112.28726563 238.38343262 111.94953125 239.07936523 111.6015625 239.79638672 C104.00876491 256.1846872 104.28436635 276.75628636 109.90625 293.734375 C122.06650867 321.92406555 152.2211266 339.04891713 179.4375 349.984375 C182.52838996 351.21067358 185.62384788 352.42389647 188.72384644 353.62698364 C192.01570584 354.90537109 195.30063902 356.20028462 198.58422852 357.49975586 C202.98546207 359.24072629 207.38837018 360.9772981 211.79345703 362.70849609 C255.54003238 379.9074027 255.54003238 379.9074027 270.9375 390.125 C272.01386719 390.83140625 273.09023438 391.5378125 274.19921875 392.265625 C284.74160239 399.57194272 292.02547788 407.18087327 296.9375 419.125 C297.35128906 420.053125 297.76507812 420.98125 298.19140625 421.9375 C304.04585815 437.27738791 302.684065 457.74568029 296.87109375 472.90625 C290.58799073 486.67516223 278.95326836 495.12994579 265.234375 500.6171875 C252.78669385 505.2159455 239.39162504 505.71016527 226.25341797 506.06201172 C224.16969044 506.11868489 222.08667873 506.20035618 220.00390625 506.28515625 C209.74720102 506.53908975 199.96900481 505.08688897 189.9375 503.125 C189.25091309 502.99641602 188.56432617 502.86783203 187.85693359 502.73535156 C170.60837253 499.37540881 157.75338875 489.37283868 147.25 475.5 C141.25133897 466.5162233 137.54043191 456.53672763 134.9375 446.125 C124.3775 446.125 113.8175 446.125 102.9375 446.125 C102.9375 469.555 102.9375 492.985 102.9375 517.125 C117.96515783 520.39188214 132.82299461 523.50257251 148 525.8125 C148.97708923 525.96252472 149.95417847 526.11254944 150.96087646 526.26712036 C170.59230524 529.24348547 190.10152387 530.64429741 209.9375 531.125 C211.46866455 531.17261475 211.46866455 531.17261475 213.03076172 531.22119141 C218.68000187 531.38870571 224.29043109 531.33490049 229.9375 531.125 C230.96939453 531.0945459 232.00128906 531.0640918 233.06445312 531.03271484 C247.48831869 530.54876162 261.38110549 529.00080198 275.4375 525.8125 C276.69409424 525.52882568 277.95068848 525.24515137 279.24536133 524.95288086 C302.89511821 519.27662377 326.47258977 508.41594831 341.9375 489.125 C342.46472656 488.5165625 342.99195313 487.908125 343.53515625 487.28125 C353.3039472 475.40240021 360.4576665 458.45880982 360.9375 443.125 C360.97746094 441.85785156 361.01742188 440.59070313 361.05859375 439.28515625 C361.5359105 415.74934912 357.15460607 397.00710669 340.9375 379.125 C340.40479492 378.53106445 339.87208984 377.93712891 339.32324219 377.32519531 C331.06791489 368.24387124 322.90159266 361.56141364 311.90625 356.11474609 C309.40723919 354.85842295 306.96828227 353.50639179 304.52929688 352.13793945 C289.41818314 343.91747947 273.48488373 337.99657457 257.36090088 332.10546875 C219.8595638 318.37575013 219.8595638 318.37575013 202.9375 310.125 C202.00437988 309.6722168 201.07125977 309.21943359 200.10986328 308.75292969 C181.97281945 299.85157653 160.98641142 288.50426793 153.9375 268.125 C152.33985477 255.21579586 152.29042016 242.07095441 158.91796875 230.6640625 C161.94710939 226.85566517 164.97466972 223.75647124 169.9375 223.125 C182.33509115 222.06732214 192.89036115 222.99517945 203.18359375 230.8359375 C204.94113563 232.5065472 206.44023442 234.22054604 207.9375 236.125 C208.80375 237.115 209.67 238.105 210.5625 239.125 C213.28371285 243.06636958 214.40059248 247.47791303 215.78393555 252.02148438 C217.65142495 257.85765513 220.43696032 262.85687001 223.55175781 268.109375 C226.97159354 273.95554254 229.47432865 279.97632599 231.84375 286.30859375 C232.66675933 288.98864849 232.66675933 288.98864849 233.9375 290.125 C239.96744772 291.1048665 245.83899942 291.24839133 251.9375 291.1875 C252.80761719 291.18298828 253.67773438 291.17847656 254.57421875 291.17382812 C256.69534293 291.1621736 258.8164311 291.14424357 260.9375 291.125 C260.9889205 279.21996661 260.99946365 267.31631649 260.94271851 255.41127014 C260.92332766 250.06786237 260.97937086 244.73940094 261.13671875 239.3984375 C261.54750745 229.56487737 261.54750745 229.56487737 257.515625 220.9765625 C254.43475452 218.56034682 251.44299012 216.85234296 247.9375 215.125 C246.17177869 213.96100494 244.41954691 212.77603605 242.6875 211.5625 C241.43993139 210.7462716 240.19095986 209.93215218 238.9375 209.125 C249.78054659 211.03847881 259.94240313 216.57953865 266.9375 225.125 C267.45699219 225.75277344 267.97648438 226.38054687 268.51171875 227.02734375 C276.34528369 236.99195406 281.8672552 248.84402081 284.9375 261.125 C289.2275 261.125 293.5175 261.125 297.9375 261.125 C296.22532892 268.17511621 293.93931328 273.11400354 289.55859375 278.8984375 C286.67871838 282.74112633 286.67871838 282.74112633 286.0390625 287.34375 C287.11025575 292.01223403 287.93518518 295.12326388 291.9375 298.125 C294.22455831 299.26852916 295.53014762 299.22834439 298.0625 299.1875 C299.34125 299.166875 300.62 299.14625 301.9375 299.125 C302.2675 298.465 302.5975 297.805 302.9375 297.125 C301.679375 297.021875 300.42125 296.91875 299.125 296.8125 C296.59178924 296.60485977 295.28062207 296.38589927 293.2421875 294.8359375 C290.75217289 291.570589 290.51803328 288.13460832 290.9375 284.125 C293.05674893 279.2913706 296.13231609 275.18445252 299.3125 271 C301.5164924 267.10062883 301.24278892 264.55168931 300.9375 260.125 C304.8975 260.125 308.8575 260.125 312.9375 260.125 C312.9375 238.675 312.9375 217.225 312.9375 195.125 C289.06976712 191.5753514 289.06976712 191.5753514 265.125 188.875 C264.24451996 188.7909491 263.36403992 188.70689819 262.45687866 188.62030029 C247.73920005 187.23244357 233.43796749 186.7682246 218.66845703 187.27441406 Z M-28.0625 195.125 C-28.0625 197.435 -28.0625 199.745 -28.0625 202.125 C-27.7325 202.125 -27.4025 202.125 -27.0625 202.125 C-27.0625 199.815 -27.0625 197.505 -27.0625 195.125 C-27.3925 195.125 -27.7225 195.125 -28.0625 195.125 Z M-27.0625 204.125 C-26.0625 206.125 -26.0625 206.125 -26.0625 206.125 Z M316.9375 206.125 C316.75926564 212.52919664 316.63711772 218.93274867 316.55297852 225.33886719 C316.5178865 227.5155426 316.47019895 229.6920543 316.40942383 231.86816406 C316.32400875 235.00627094 316.28469886 238.14218839 316.25390625 241.28125 C316.21777725 242.24615356 316.18164825 243.21105713 316.14442444 244.2052002 C316.14134589 249.56410963 316.75460099 252.51332797 320.3527832 256.59545898 C320.97264603 257.20163559 321.59250885 257.80781219 322.2311554 258.43235779 C329.77222702 265.91287263 332.85872953 279.23561606 335.9375 289.125 C344.5175 289.125 353.0975 289.125 361.9375 289.125 C361.9375 267.345 361.9375 245.565 361.9375 223.125 C340.05120458 212.31662575 340.05120458 212.31662575 316.9375 206.125 Z M-25.0625 211.125 C-24.0625 213.125 -24.0625 213.125 -24.0625 213.125 Z M-23.0625 216.125 C-22.0625 218.125 -22.0625 218.125 -22.0625 218.125 Z M-22.0625 219.125 C-21.0625 221.125 -21.0625 221.125 -21.0625 221.125 Z M-21.0625 222.125 C-20.0625 224.125 -20.0625 224.125 -20.0625 224.125 Z M-20.0625 224.125 C-19.0625 226.125 -19.0625 226.125 -19.0625 226.125 Z M-364.0625 263.125 C-364.86346948 267.53033215 -364.55301307 269.38923039 -362.0625 273.125 C-359.37280173 275.97952657 -356.41591016 278.53163897 -353.43359375 281.07421875 C-350.58974088 283.5338938 -347.82553479 286.07560192 -345.0625 288.625 C-340.45488156 292.8627833 -335.81568628 297.05084033 -331.0625 301.125 C-330.34126953 301.74375 -330.34126953 301.74375 -329.60546875 302.375 C-319.45135531 312.76653466 -319.45135531 312.76653466 -308.0625 319.125 C-307.91660112 294.8391877 -307.91660112 294.8391877 -308.5 270.5625 C-308.53923584 269.51199463 -308.57847168 268.46148926 -308.61889648 267.37915039 C-308.41427133 262.91210168 -308.41427133 262.91210168 -310.0625 259.125 C-320.49516478 257.89851836 -331.14051985 257.92254407 -341.63644409 257.78396606 C-343.0831576 257.76138431 -344.52976366 257.73024153 -345.97610474 257.69039917 C-348.04183266 257.63614785 -350.10552806 257.6150484 -352.171875 257.6015625 C-353.37811523 257.58174316 -354.58435547 257.56192383 -355.82714844 257.54150391 C-360.0096671 258.29582172 -361.46892622 259.82567143 -364.0625 263.125 Z M-302.69200897 259.26602554 C-304.6642345 261.94121042 -304.44009696 263.93204877 -304.44345093 267.23608398 C-304.4519104 268.51482391 -304.46036987 269.79356384 -304.46908569 271.11105347 C-304.46325258 272.53106816 -304.45710806 273.95108161 -304.45068359 275.37109375 C-304.45474797 276.86419052 -304.4600891 278.35728427 -304.46661377 279.85037231 C-304.48030924 283.90819271 -304.47497961 287.96578469 -304.46547651 292.02360916 C-304.45789143 296.26631545 -304.46492232 300.50900194 -304.46963501 304.75170898 C-304.47509593 311.87715168 -304.46789215 319.00250114 -304.45361328 326.12792969 C-304.43728609 334.37079686 -304.44257436 342.61344144 -304.4590925 350.85630322 C-304.47269781 357.92813367 -304.47463171 364.99989703 -304.46677649 372.07173634 C-304.4620947 376.2977698 -304.46148895 380.52369857 -304.47138596 384.74972534 C-304.48003951 388.72243568 -304.47406347 392.69485848 -304.45670319 396.66753769 C-304.45272968 398.12725217 -304.45388713 399.58699076 -304.46049118 401.04669571 C-304.46866183 403.03576047 -304.45660936 405.02487799 -304.44345093 407.01391602 C-304.44231985 408.12815445 -304.44118877 409.24239288 -304.44002342 410.39039612 C-304.28576164 413.14076335 -304.28576164 413.14076335 -302.66717052 414.98355389 C-300.54999532 416.48955862 -299.20976049 416.49938417 -296.62280273 416.49731445 C-295.72855087 416.50354324 -294.83429901 416.50977203 -293.91294861 416.51618958 C-292.46910545 416.50237495 -292.46910545 416.50237495 -290.99609375 416.48828125 C-290.00625992 416.48877975 -289.01642609 416.48927826 -287.99659729 416.48979187 C-285.904368 416.48745128 -283.81213591 416.47772367 -281.7199707 416.46118164 C-278.50902272 416.43756636 -275.29890349 416.44062368 -272.08789062 416.44726562 C-270.05728669 416.44168977 -268.02668627 416.43458047 -265.99609375 416.42578125 C-265.03150742 416.42669266 -264.06692108 416.42760406 -263.07310486 416.42854309 C-262.18200516 416.41901108 -261.29090546 416.40947906 -260.37280273 416.3996582 C-259.58687241 416.39505081 -258.80094208 416.39044342 -257.99119568 416.38569641 C-255.82470964 416.29122175 -255.82470964 416.29122175 -254.0625 414.125 C-253.87454389 411.47455896 -253.81066139 408.92949186 -253.83544922 406.27880859 C-253.83515717 405.46897018 -253.83486511 404.65913177 -253.83456421 403.82475281 C-253.8359605 401.14087304 -253.85153565 398.45726893 -253.8671875 395.7734375 C-253.87091657 393.91541699 -253.87376404 392.05739452 -253.87576294 390.19937134 C-253.88340776 385.30353386 -253.90306351 380.40781461 -253.9251709 375.51202393 C-253.94561107 370.51844889 -253.95476074 365.52485479 -253.96484375 360.53125 C-253.98630862 350.72911466 -254.02045478 340.92706715 -254.0625 331.125 C-251.17464381 333.94487086 -248.95818736 336.61461868 -246.84765625 340.0625 C-246.25049805 341.02986084 -245.65333984 341.99722168 -245.03808594 342.99389648 C-244.40676758 344.02716064 -243.77544922 345.0604248 -243.125 346.125 C-241.77880124 348.30428642 -240.43112096 350.48265829 -239.08203125 352.66015625 C-238.40736816 353.7495752 -237.73270508 354.83899414 -237.03759766 355.96142578 C-234.18441637 360.53145336 -231.25929382 365.05243807 -228.3125 369.5625 C-227.77955322 370.37847656 -227.24660645 371.19445312 -226.69750977 372.03515625 C-225.65229097 373.63423657 -224.60664802 375.23303974 -223.56054688 376.83154297 C-221.69382675 379.68942577 -219.83627056 382.55301557 -217.99143982 385.42507935 C-217.09748162 386.80137041 -216.19102404 388.16971304 -215.26637268 389.52557373 C-212.70009277 393.33516316 -210.59638723 397.05406814 -208.7956543 401.28393555 C-206.09967649 407.08874688 -203.28591981 412.25301325 -198.0625 416.125 C-188.68164338 419.21940144 -178.27426593 418.15262839 -168.54559326 417.55657959 C-164.91345673 417.35731917 -161.27874578 417.28014091 -157.64257812 417.18945312 C-145.46605346 417.67690128 -145.46605346 417.67690128 -134.0625 415.125 C-132.84074224 384.83014018 -132.90734292 354.52885781 -132.93393159 324.21475625 C-132.93831257 318.62174627 -132.93514008 313.02875849 -132.9303025 307.43574989 C-132.92523528 301.33011884 -132.92574533 295.22450205 -132.92868423 289.11886978 C-132.92935144 286.54073202 -132.92853226 283.96259343 -132.92620468 281.38445663 C-132.92368509 277.82252497 -132.92750435 274.26065731 -132.93310547 270.69873047 C-132.93006912 269.10347031 -132.93006912 269.10347031 -132.92697144 267.47598267 C-132.92979126 266.51549011 -132.93261108 265.55499756 -132.93551636 264.56539917 C-132.93589338 263.72685835 -132.93627041 262.88831753 -132.93665886 262.02436638 C-132.85374889 260.11414659 -132.85374889 260.11414659 -134.0625 259.125 C-135.55571297 259.02149806 -137.05375657 258.98649261 -138.55053711 258.97973633 C-139.50500229 258.97335648 -140.45946747 258.96697662 -141.44285583 258.96040344 C-142.48136185 258.95929062 -143.51986786 258.9581778 -144.58984375 258.95703125 C-146.17872154 258.95203865 -146.17872154 258.95203865 -147.79969788 258.94694519 C-150.04509038 258.94187131 -152.29049045 258.93953701 -154.53588867 258.93969727 C-157.98173378 258.93751159 -161.42725852 258.91936279 -164.87304688 258.90039062 C-167.04947807 258.89745671 -169.22591079 258.8954719 -171.40234375 258.89453125 C-172.43882553 258.88734573 -173.47530731 258.88016022 -174.54319763 258.87275696 C-175.50081497 258.87583359 -176.45843231 258.87891022 -177.44506836 258.88208008 C-178.29032578 258.88065506 -179.13558319 258.87923004 -180.00645447 258.87776184 C-182.28647994 258.93722777 -182.28647994 258.93722777 -184.0625 261.125 C-184.27989976 263.74306486 -184.37389416 266.25857846 -184.38134766 268.87939453 C-184.39139328 269.67947937 -184.4014389 270.47956421 -184.41178894 271.30389404 C-184.44274271 273.95519271 -184.45968972 276.60638986 -184.4765625 279.2578125 C-184.49526436 281.09342327 -184.51483703 282.92902536 -184.5352478 284.76461792 C-184.58667882 289.60116466 -184.62624567 294.43773932 -184.66339111 299.27441406 C-184.70336217 304.20775314 -184.75448589 309.14097504 -184.8046875 314.07421875 C-184.90157658 323.75773031 -184.98593965 333.44130788 -185.0625 343.125 C-187.44293647 339.47671131 -189.82305701 335.82821659 -192.203125 332.1796875 C-193.20400146 330.64574341 -193.20400146 330.64574341 -194.22509766 329.08081055 C-199.41972202 321.11720343 -204.59296985 313.14004705 -209.75195312 305.15332031 C-212.47525254 300.938497 -215.20193481 296.72585843 -217.9296875 292.51391602 C-220.27657064 288.88923882 -222.6187437 285.26164969 -224.953125 281.62890625 C-227.23892057 278.07339662 -229.53900338 274.52756378 -231.85058594 270.98876953 C-232.95535132 269.28978102 -234.04491862 267.58093451 -235.1328125 265.87109375 C-236.02613281 264.51177734 -236.02613281 264.51177734 -236.9375 263.125 C-237.42992187 262.361875 -237.92234375 261.59875 -238.4296875 260.8125 C-241.0458377 258.10872754 -244.1204769 258.17387199 -247.76956177 257.98455811 C-249.23158524 257.9743161 -249.23158524 257.9743161 -250.72314453 257.96386719 C-252.3897966 257.94945587 -252.3897966 257.94945587 -254.09011841 257.93475342 C-255.27983246 257.93050354 -256.46954651 257.92625366 -257.6953125 257.921875 C-258.92410126 257.91617493 -260.15289001 257.91047485 -261.41891479 257.90460205 C-264.012829 257.89516746 -266.6067551 257.8886242 -269.20068359 257.88476562 C-273.17957135 257.87501942 -277.15795127 257.84396437 -281.13671875 257.8125 C-283.65624693 257.80597371 -286.1757788 257.80072177 -288.6953125 257.796875 C-289.88907501 257.7845282 -291.08283752 257.7721814 -292.31277466 257.75946045 C-293.41757172 257.76246155 -294.52236877 257.76546265 -295.66064453 257.76855469 C-297.12028122 257.76308624 -297.12028122 257.76308624 -298.60940552 257.75750732 C-301.05174419 257.9369928 -301.05174419 257.9369928 -302.69200897 259.26602554 Z M-122.0625 351.125 C-123.78459726 352.84709726 -123.19005043 355.13522095 -123.19189453 357.48339844 C-123.19504669 358.62838806 -123.19819885 359.77337769 -123.20144653 360.95306396 C-123.1994223 362.20089661 -123.19739807 363.44872925 -123.1953125 364.734375 C-123.19626923 366.00847229 -123.19722595 367.28256958 -123.19821167 368.59527588 C-123.19889396 371.29890291 -123.19753436 374.00244038 -123.19287109 376.70605469 C-123.18719659 380.16385423 -123.19043802 383.62157578 -123.19644356 387.07937241 C-123.20093993 390.38104267 -123.19778432 393.68270371 -123.1953125 396.984375 C-123.19733673 398.22411072 -123.19936096 399.46384644 -123.20144653 400.7411499 C-123.19829437 401.89874817 -123.19514221 403.05634644 -123.19189453 404.24902344 C-123.19109894 405.26526794 -123.19030334 406.28151245 -123.18948364 407.32855225 C-123.06561492 410.05640297 -122.80148756 412.49535217 -122.0625 415.125 C-119.50231964 416.40509018 -117.6408472 416.28007123 -114.77416992 416.31787109 C-113.66929733 416.33393402 -112.56442474 416.34999695 -111.42607117 416.36654663 C-106.37088576 416.41092035 -101.31583255 416.45205801 -96.26049805 416.47509766 C-93.59158439 416.48843287 -90.92447813 416.51895802 -88.25561523 416.55712891 C-84.41366487 416.61181351 -80.57275556 416.63375987 -76.73046875 416.6484375 C-74.94119209 416.68244156 -74.94119209 416.68244156 -73.11576843 416.71713257 C-66.53870269 416.78196415 -66.53870269 416.78196415 -60.8605957 413.79541016 C-58.39983512 410.14085493 -57.5427128 408.58031889 -58.0625 404.125 C-60.99477057 400.63693958 -64.48980178 397.93279873 -68.0625 395.125 C-69.81377753 393.68905667 -71.56377705 392.25155326 -73.3125 390.8125 C-74.22773438 390.07128906 -75.14296875 389.33007812 -76.0859375 388.56640625 C-79.41034365 385.83969517 -82.67848035 383.05419978 -85.9375 380.25 C-92.61590036 374.50582685 -99.31290704 368.7854686 -106.0625 363.125 C-106.57506348 362.69493652 -107.08762695 362.26487305 -107.61572266 361.82177734 C-109.09424241 360.58503406 -110.57827963 359.35489613 -112.0625 358.125 C-112.908125 357.42375 -113.75375 356.7225 -114.625 356 C-117.01326728 354.16287133 -119.4485107 352.61870817 -122.0625 351.125 Z M-29.0625 431.125 C-28.0625 433.125 -28.0625 433.125 -28.0625 433.125 Z M-34.0625 466.125 C-33.0625 468.125 -33.0625 468.125 -33.0625 468.125 Z M-33.0625 475.125 C-32.0625 479.125 -32.0625 479.125 -32.0625 479.125 Z M35.9375 618.125 C36.9375 621.125 36.9375 621.125 36.9375 621.125 Z M34.9375 638.125 C35.9375 640.125 35.9375 640.125 35.9375 640.125 Z M31.9375 648.125 C32.9375 650.125 32.9375 650.125 32.9375 650.125 Z " fill="#007BFE" transform="translate(420.0625,12.875)"/>
<path d="M0 0 C27.26274964 0.19886053 54.03092544 0.82049132 81 5 C82.95308554 5.27892227 84.90620781 5.55758759 86.859375 5.8359375 C112.26013795 9.67307403 137.76252067 16.5644067 162 25 C163.17433594 25.39993164 164.34867188 25.79986328 165.55859375 26.21191406 C202.06935416 38.66846461 239.7317848 54.27796053 271.28271484 76.78759766 C273.15568085 78.10991059 275.05286524 79.39102501 276.95703125 80.66796875 C285.41213638 86.35607677 293.52101992 92.36394299 301.45410156 98.75830078 C302.87532361 99.89985721 304.30822825 101.02682873 305.7421875 102.15234375 C311.72790923 106.86073857 317.39918577 111.84196859 323 117 C323.55316895 117.50273437 324.10633789 118.00546875 324.67626953 118.5234375 C337.8267785 130.47649594 349.91985929 143.09442341 361 157 C362.05028708 158.28402345 363.10251188 159.56646338 364.15625 160.84765625 C364.71884521 161.53351807 365.28144043 162.21937988 365.86108398 162.92602539 C366.95004118 164.25343124 368.04055309 165.57956413 369.13305664 166.90405273 C400.65233169 205.50442451 420.19753647 251.2478943 429 300 C429.18111328 300.95390625 429.36222656 301.9078125 429.54882812 302.890625 C436.37343887 340.56449095 431.51364016 379.56231559 421 416 C420.72768555 416.94907227 420.45537109 417.89814453 420.17480469 418.87597656 C416.19383219 432.31115703 410.45787008 444.91440672 404.5 457.5625 C404.1410968 458.32554443 403.7821936 459.08858887 403.41241455 459.87475586 C397.33845133 472.72455017 390.86988473 485.33970456 382.6875 497 C382.22875488 497.6602417 381.77000977 498.3204834 381.29736328 499.00073242 C376.86299686 505.31559028 372.14778772 511.39410916 367.29785156 517.39355469 C366.04301736 518.94675429 364.79865593 520.50839687 363.5546875 522.0703125 C359.83027518 526.70373393 356.05733687 531.11004075 351.77026367 535.22949219 C350.05644117 536.94355104 348.48799361 538.71672903 346.91796875 540.5625 C335.72264034 553.43240639 323.45980043 565.54807673 309.73193359 575.68701172 C307.11038619 577.67442107 304.58592837 579.77522501 302.04980469 581.86987305 C294.27565302 588.28938157 286.30434082 594.28708468 278 600 C277.44618652 600.38687988 276.89237305 600.77375977 276.32177734 601.17236328 C249.37588589 619.96655648 219.56752996 635.02816988 189 647 C187.87110352 647.44939941 186.74220703 647.89879883 185.57910156 648.36181641 C157.71603107 659.4280053 129.35057425 666.87118618 100 673 C99.07960938 673.19577637 98.15921875 673.39155273 97.2109375 673.59326172 C66.0506646 680.17115856 33.80764403 682.58963707 2 682 C4.57477246 679.40169214 7.16339779 676.84674414 9.83203125 674.34375 C24.30561454 660.65928495 31.3386402 646.06892339 32.04052734 626.06347656 C32.15435178 618.88396954 31.60663888 612.74659475 29 606 C28.74573242 605.319375 28.49146484 604.63875 28.22949219 603.9375 C21.67323054 586.59273533 12.49186033 571.53361759 1.34814453 556.79541016 C-14.74676032 535.36079764 -31.7042193 512.40228284 -35.67578125 485.19921875 C-35.95922768 482.99100364 -35.95922768 482.99100364 -36.5703125 480.84765625 C-37.09219101 478.60357864 -36.69695541 477.16830573 -36 475 C-36.66 475 -37.32 475 -38 475 C-38.36854314 459.66482525 -38.69546626 445.33695433 -32.7421875 430.9140625 C-31.87756834 428.6842552 -31.2602162 426.43033519 -30.625 424.125 C-29.05231612 418.73294098 -26.62817451 413.94409066 -24 409 C-23.66097656 408.28585937 -23.32195312 407.57171875 -22.97265625 406.8359375 C-22 405 -22 405 -20 403 C-18.99664858 401.33534878 -17.99717849 399.66835633 -17 398 C-12.00519906 390.924032 -6.60479396 384.238336 -0.96704102 377.67285156 C2.38936578 373.7577378 5.57479054 369.74331243 8.66015625 365.609375 C10 364 10 364 12 363 C12.12375 362.29875 12.2475 361.5975 12.375 360.875 C13 358 13 358 14.8125 355.125 C23.01757458 341.05915786 23.17480529 322.2158033 19.25 306.8125 C18.5650574 304.52120393 17.80924531 302.25040131 17 300 C16.73662842 299.2570166 16.47325684 298.5140332 16.2019043 297.74853516 C13.64842034 290.9235115 10.16625861 284.91642832 6.3125 278.75 C5.68819092 277.73711914 5.06388184 276.72423828 4.4206543 275.68066406 C1.11209528 270.32985327 -2.25553835 265.02228891 -5.6875 259.75 C-9.2547151 254.26197677 -12.59391516 248.66355266 -15.875 243 C-16.5724231 241.79682129 -16.5724231 241.79682129 -17.28393555 240.56933594 C-24.437496 228.12494401 -24.437496 228.12494401 -24 222 C-24.66 221.67 -25.32 221.34 -26 221 C-25.505 220.01 -25.505 220.01 -25 219 C-25.66 218.67 -26.32 218.34 -27 218 C-30.28170189 210.4002693 -31.1605303 203.18704522 -31 195 C-31.66 195 -32.32 195 -33 195 C-33 185.76 -33 176.52 -33 167 C-32.34 166.67 -31.68 166.34 -31 166 C-31.020625 164.9275 -31.04125 163.855 -31.0625 162.75 C-31.01176982 159.70618898 -30.79271141 157.83707243 -30 155 C-29.77183594 154.11828125 -29.54367187 153.2365625 -29.30859375 152.328125 C-25.45555888 138.71291659 -18.80324215 126.74368533 -11 115 C-10.22525616 113.73154686 -9.45418492 112.46084034 -8.6875 111.1875 C-6.40147075 107.51644977 -3.89857722 104.00969114 -1.375 100.5 C2.49933227 95.11145879 6.33972631 89.70158349 10.125 84.25 C10.61049316 83.55841797 11.09598633 82.86683594 11.59619141 82.15429688 C14.12429583 78.88250213 14.12429583 78.88250213 15 75 C15.66 74.34 16.32 73.68 17 73 C24.18457 61.16826766 24.04286334 45.02548565 21 32 C19.86153515 28.60927807 18.59968107 25.45715454 17.0234375 22.25 C16 20 16 20 16 17 C15.34 17 14.68 17 14 17 C12.51953125 15.2421875 12.51953125 15.2421875 10.8125 12.875 C8.44268145 9.71358239 6.11970875 7.06667709 3.0625 4.5625 C2.051875 3.716875 1.04125 2.87125 0 2 C0 1.34 0 0.68 0 0 Z M214.73095703 187.14941406 C187.58369921 187.92565718 187.58369921 187.92565718 161 193 C160.27699707 193.18481934 159.55399414 193.36963867 158.80908203 193.56005859 C146.94056663 196.65493974 138.70113172 202.37838407 129.64453125 210.53320312 C127.63436008 212.32612302 125.5325837 213.99531701 123.4375 215.6875 C116.68724258 221.78784205 112.58206508 229.46357488 108.6875 237.5625 C108.34976563 238.25843262 108.01203125 238.95436523 107.6640625 239.67138672 C100.07126491 256.0596872 100.34686635 276.63128636 105.96875 293.609375 C118.12900867 321.79906555 148.2836266 338.92391713 175.5 349.859375 C178.59088996 351.08567358 181.68634788 352.29889647 184.78634644 353.50198364 C188.07820584 354.78037109 191.36313902 356.07528462 194.64672852 357.37475586 C199.04796207 359.11572629 203.45087018 360.8522981 207.85595703 362.58349609 C251.60253238 379.7824027 251.60253238 379.7824027 267 390 C268.07636719 390.70640625 269.15273438 391.4128125 270.26171875 392.140625 C280.80410239 399.44694272 288.08797788 407.05587327 293 419 C293.41378906 419.928125 293.82757812 420.85625 294.25390625 421.8125 C300.10835815 437.15238791 298.746565 457.62068029 292.93359375 472.78125 C286.65049073 486.55016223 275.01576836 495.00494579 261.296875 500.4921875 C248.84919385 505.0909455 235.45412504 505.58516527 222.31591797 505.93701172 C220.23219044 505.99368489 218.14917873 506.07535618 216.06640625 506.16015625 C205.80970102 506.41408975 196.03150481 504.96188897 186 503 C185.31341309 502.87141602 184.62682617 502.74283203 183.91943359 502.61035156 C166.67087253 499.25040881 153.81588875 489.24783868 143.3125 475.375 C137.31383897 466.3912233 133.60293191 456.41172763 131 446 C120.44 446 109.88 446 99 446 C99 469.43 99 492.86 99 517 C114.02765783 520.26688214 128.88549461 523.37757251 144.0625 525.6875 C145.03958923 525.83752472 146.01667847 525.98754944 147.02337646 526.14212036 C166.65480524 529.11848547 186.16402387 530.51929741 206 531 C207.53116455 531.04761475 207.53116455 531.04761475 209.09326172 531.09619141 C214.74250187 531.26370571 220.35293109 531.20990049 226 531 C227.03189453 530.9695459 228.06378906 530.9390918 229.12695312 530.90771484 C243.55081869 530.42376162 257.44360549 528.87580198 271.5 525.6875 C272.75659424 525.40382568 274.01318848 525.12015137 275.30786133 524.82788086 C298.95761821 519.15162377 322.53508977 508.29094831 338 489 C338.52722656 488.3915625 339.05445313 487.783125 339.59765625 487.15625 C349.3664472 475.27740021 356.5201665 458.33380982 357 443 C357.03996094 441.73285156 357.07992188 440.46570313 357.12109375 439.16015625 C357.5984105 415.62434912 353.21710607 396.88210669 337 379 C336.46729492 378.40606445 335.93458984 377.81212891 335.38574219 377.20019531 C327.13041489 368.11887124 318.96409266 361.43641364 307.96875 355.98974609 C305.46973919 354.73342295 303.03078227 353.38139179 300.59179688 352.01293945 C285.48068314 343.79247947 269.54738373 337.87157457 253.42340088 331.98046875 C215.9220638 318.25075013 215.9220638 318.25075013 199 310 C198.06687988 309.5472168 197.13375977 309.09443359 196.17236328 308.62792969 C178.03531945 299.72657653 157.04891142 288.37926793 150 268 C148.40235477 255.09079586 148.35292016 241.94595441 154.98046875 230.5390625 C158.00960939 226.73066517 161.03716972 223.63147124 166 223 C178.39759115 221.94232214 188.95286115 222.87017945 199.24609375 230.7109375 C201.00363563 232.3815472 202.50273442 234.09554604 204 236 C204.86625 236.99 205.7325 237.98 206.625 239 C209.34621285 242.94136958 210.46309248 247.35291303 211.84643555 251.89648438 C213.71392495 257.73265513 216.49946032 262.73187001 219.61425781 267.984375 C223.03409354 273.83054254 225.53682865 279.85132599 227.90625 286.18359375 C228.72925933 288.86364849 228.72925933 288.86364849 230 290 C236.02994772 290.9798665 241.90149942 291.12339133 248 291.0625 C248.87011719 291.05798828 249.74023438 291.05347656 250.63671875 291.04882812 C252.75784293 291.0371736 254.8789311 291.01924357 257 291 C257.0514205 279.09496661 257.06196365 267.19131649 257.00521851 255.28627014 C256.98582766 249.94286237 257.04187086 244.61440094 257.19921875 239.2734375 C257.61000745 229.43987737 257.61000745 229.43987737 253.578125 220.8515625 C250.49725452 218.43534682 247.50549012 216.72734296 244 215 C242.23427869 213.83600494 240.48204691 212.65103605 238.75 211.4375 C237.50243139 210.6212716 236.25345986 209.80715218 235 209 C245.84304659 210.91347881 256.00490313 216.45453865 263 225 C263.51949219 225.62777344 264.03898438 226.25554687 264.57421875 226.90234375 C272.40778369 236.86695406 277.9297552 248.71902081 281 261 C285.29 261 289.58 261 294 261 C292.28782892 268.05011621 290.00181328 272.98900354 285.62109375 278.7734375 C282.74121838 282.61612633 282.74121838 282.61612633 282.1015625 287.21875 C283.17275575 291.88723403 283.99768518 294.99826388 288 298 C290.28705831 299.14352916 291.59264762 299.10334439 294.125 299.0625 C295.40375 299.041875 296.6825 299.02125 298 299 C298.33 298.34 298.66 297.68 299 297 C297.741875 296.896875 296.48375 296.79375 295.1875 296.6875 C292.65428924 296.47985977 291.34312207 296.26089927 289.3046875 294.7109375 C286.81467289 291.445589 286.58053328 288.00960832 287 284 C289.11924893 279.1663706 292.19481609 275.05945252 295.375 270.875 C297.5789924 266.97562883 297.30528892 264.42668931 297 260 C300.96 260 304.92 260 309 260 C309 238.55 309 217.1 309 195 C285.13226712 191.4503514 285.13226712 191.4503514 261.1875 188.75 C260.30701996 188.6659491 259.42653992 188.58189819 258.51937866 188.49530029 C243.80170005 187.10744357 229.50046749 186.6432246 214.73095703 187.14941406 Z M313 206 C312.82176564 212.40419664 312.69961772 218.80774867 312.61547852 225.21386719 C312.5803865 227.3905426 312.53269895 229.5670543 312.47192383 231.74316406 C312.38650875 234.88127094 312.34719886 238.01718839 312.31640625 241.15625 C312.28027725 242.12115356 312.24414825 243.08605713 312.20692444 244.0802002 C312.20384589 249.43910963 312.81710099 252.38832797 316.4152832 256.47045898 C317.03514603 257.07663559 317.65500885 257.68281219 318.2936554 258.30735779 C325.83472702 265.78787263 328.92122953 279.11061606 332 289 C340.58 289 349.16 289 358 289 C358 267.22 358 245.44 358 223 C336.11370458 212.19162575 336.11370458 212.19162575 313 206 Z " fill="#FE0010" transform="translate(424,13)"/>
<path d="M0 0 C2.65822163 2.35685348 3.99775058 4.73559017 5.5 7.9375 C6.7334645 10.55861207 7.8416429 12.8024271 9.65625 15.06640625 C11 17 11 17 11 21 C6.8840195 20.42895406 4.12930417 19.12233302 0.6875 16.8125 C-0.19550781 16.24144531 -1.07851563 15.67039062 -1.98828125 15.08203125 C-4 13 -4 13 -4.41796875 10.00390625 C-3.83492605 5.81362742 -2.26429475 3.53796055 0 0 Z " fill="#FF0011" transform="translate(646,254)"/>
<path d="M0 0 C0.99 0 1.98 0 3 0 C4.34277732 2.7663534 5.67255228 5.53876211 7 8.3125 C7.3815625 9.09818359 7.763125 9.88386719 8.15625 10.69335938 C8.5171875 11.45068359 8.878125 12.20800781 9.25 12.98828125 C9.58515625 13.68477783 9.9203125 14.38127441 10.265625 15.09887695 C11 17 11 17 11 20 C7.8526115 19.37193369 5.57137632 18.29002627 2.875 16.5625 C1.85019531 15.91474609 1.85019531 15.91474609 0.8046875 15.25390625 C-1 14 -1 14 -3 12 C-3.46360285 7.08580978 -3.17611823 3.88192228 0 0 Z " fill="#FF0013" transform="translate(697,224)"/>
<path d="M0 0 C3.22465159 2.70870734 4.85604779 6.23253718 6.6875 9.9375 C7.00783203 10.55818359 7.32816406 11.17886719 7.65820312 11.81835938 C9.35326073 15.21208879 10 17.12547582 10 21 C4.89568196 20.2147203 1.24456913 17.12011222 -2.5 13.75 C-4.17120759 10.68611942 -4.12413692 10.12126 -3.375 6.875 C-2.54369064 4.10037006 -1.6536885 2.48053275 0 0 Z " fill="#FF0011" transform="translate(750,252)"/>
<path d="M0 0 C0.66 0 1.32 0 2 0 C4.002784 4.005568 3.63535709 8.65742174 3 13 C1.42970813 16.09709874 -0.41951451 18.66686674 -3 21 C-3.66 21 -4.32 21 -5 21 C-3.57142857 3.57142857 -3.57142857 3.57142857 0 0 Z " fill="#FF0010" transform="translate(675,255)"/>
<path d="M0 0 C0.66 0 1.32 0 2 0 C3.73591152 3.47182303 3.46571673 7.20408964 3 11 C0.98031034 14.96724754 -0.73727671 17.47759883 -5 19 C-6.67863052 15.64273896 -4.7340085 12.33236379 -3.625 8.9375 C-3.39039063 8.19177734 -3.15578125 7.44605469 -2.9140625 6.67773438 C-1.14528747 1.14528747 -1.14528747 1.14528747 0 0 Z " fill="#FF0010" transform="translate(728,225)"/>
<path d="M0 0 C0.66 0.33 1.32 0.66 2 1 C3.39548903 5.66800907 3.50370774 9.06206144 1.1875 13.375 C0.465625 14.24125 -0.25625 15.1075 -1 16 C-1.66 16.99 -2.32 17.98 -3 19 C-3.66 19 -4.32 19 -5 19 C-4.39297368 12.3227105 -2.22368606 6.29872004 0 0 Z " fill="#FF0010" transform="translate(778,253)"/>
<path d="M0 0 C0.94602608 3.0851746 1.01578237 5.49259007 0.625 8.6875 C0.53476562 9.47511719 0.44453125 10.26273437 0.3515625 11.07421875 C0 13 0 13 -1 14 C-1.15825258 15.99782126 -1.25119171 18.00088834 -1.31640625 20.00390625 C-1.35830078 21.21884766 -1.40019531 22.43378906 -1.44335938 23.68554688 C-1.48267578 24.96494141 -1.52199219 26.24433594 -1.5625 27.5625 C-1.60568359 28.84576172 -1.64886719 30.12902344 -1.69335938 31.45117188 C-1.799848 34.63399853 -1.90185962 37.81690674 -2 41 C-2.66 41 -3.32 41 -4 41 C-4.34173894 26.78015522 -4.54463998 13.63391993 0 0 Z " fill="#F60073" transform="translate(390,447)"/>
<path d="M0 0 C0.66 0.33 1.32 0.66 2 1 C3.41957787 6.20851499 3.22168853 11.51705361 3.25 16.875 C3.270625 17.84308594 3.29125 18.81117188 3.3125 19.80859375 C3.34444529 25.67854158 2.75513703 29.79424109 0 35 C-0.7859087 32.64227389 -1.04157149 31.2012443 -0.53344727 28.74145508 C0.05776402 25.70314317 0.11289924 22.91854545 0.09765625 19.82421875 C0.09443359 18.66728516 0.09121094 17.51035156 0.08789062 16.31835938 C0.07532227 14.52108398 0.07532227 14.52108398 0.0625 12.6875 C0.05798828 11.46998047 0.05347656 10.25246094 0.04882812 8.99804688 C0.03706578 5.99864774 0.02062826 2.99934911 0 0 Z " fill="#FC005B" transform="translate(445,323)"/>
<path d="M0 0 C0.33 0 0.66 0 1 0 C3.88260285 13.05658061 3.21056719 27.67142584 -2 40 C-2.33 40 -2.66 40 -3 40 C-3 37.69 -3 35.38 -3 33 C-2.34 33 -1.68 33 -1 33 C-1.020625 31.88625 -1.04125 30.7725 -1.0625 29.625 C-1 26 -1 26 0 24 C0.08471364 22.18658158 0.10721083 20.37005839 0.09765625 18.5546875 C0.09443359 17.47832031 0.09121094 16.40195312 0.08789062 15.29296875 C0.07532227 13.60107422 0.07532227 13.60107422 0.0625 11.875 C0.05573242 10.17150391 0.05573242 10.17150391 0.04882812 8.43359375 C0.03701615 5.62234362 0.02054507 2.8111977 0 0 Z " fill="#2430FE" transform="translate(454,624)"/>
<path d="M0 0 C1.52762296 4.67639682 0.03940678 7.70737766 -2 12 C-3.23940382 14.09813362 -4.5669888 16.02343282 -6 18 C-6.66 17.67 -7.32 17.34 -8 17 C-6.3341708 10.83643195 -3.12194714 5.51740344 0 0 Z " fill="#F8005F" transform="translate(407,137)"/>
<path d="M0 0 C0.66 0 1.32 0 2 0 C5.64079463 6.43520528 7.64134677 11.58783319 8 19 C5.85727214 15.7859082 4.37881715 12.47398867 2.875 8.9375 C2.59785156 8.30005859 2.32070313 7.66261719 2.03515625 7.00585938 C0 2.24880696 0 2.24880696 0 0 Z " fill="#FE0057" transform="translate(445,598)"/>
<path d="M0 0 C0.33 0 0.66 0 1 0 C1.32374517 5.50366792 1.53286034 9.43672206 -2 14 C-2.66 13.67 -3.32 13.34 -4 13 C-2.68 8.71 -1.36 4.42 0 0 Z " fill="#F10067" transform="translate(398,155)"/>
<path d="M0 0 C0.33 0.66 0.66 1.32 1 2 C-0.21484375 4.6015625 -0.21484375 4.6015625 -1.9375 7.625 C-2.50339844 8.62789062 -3.06929688 9.63078125 -3.65234375 10.6640625 C-4.09707031 11.43492188 -4.54179687 12.20578125 -5 13 C-5.99 12.67 -6.98 12.34 -8 12 C-5.58047417 7.79766566 -2.84444647 3.92072351 0 0 Z " fill="#F5006B" transform="translate(426,109)"/>
<path d="M0 0 C1.16161779 2.86578759 0.9946154 4.01630163 0.00390625 7.015625 C-0.70958984 8.61664063 -0.70958984 8.61664063 -1.4375 10.25 C-1.91058594 11.32765625 -2.38367188 12.4053125 -2.87109375 13.515625 C-3.24363281 14.33546875 -3.61617188 15.1553125 -4 16 C-4.33 16 -4.66 16 -5 16 C-4.45144652 11.428721 -3.58255197 7.32564205 -2 3 C-1.34 3 -0.68 3 0 3 C0 2.01 0 1.02 0 0 Z " fill="#0E45FF" transform="translate(443,354)"/>
<path d="M0 0 C0.33 0 0.66 0 1 0 C1.36625971 4.51720311 1.36625971 4.51720311 -0.375 6.8125 C-2 8 -2 8 -4 8 C-4 8.66 -4 9.32 -4 10 C-4.66 10 -5.32 10 -6 10 C-4.63201951 6.0100569 -2.79608023 3.15686477 0 0 Z " fill="#F60058" transform="translate(415,400)"/>
<path d="M0 0 C0 4.38968456 -2.12805101 5.76905739 -5 9 C-6.32 8.67 -7.64 8.34 -9 8 C-6.03 5.36 -3.06 2.72 0 0 Z " fill="#FC0057" transform="translate(435,686)"/>
<path d="M0 0 C0.33 0 0.66 0 1 0 C1.02708567 1.60407328 1.04643483 3.2082785 1.0625 4.8125 C1.07410156 5.70582031 1.08570313 6.59914063 1.09765625 7.51953125 C1 10 1 10 0 13 C-0.99 12.67 -1.98 12.34 -3 12 C-2.01 8.04 -1.02 4.08 0 0 Z " fill="#FF003C" transform="translate(447,64)"/>
<path d="M0 0 C0.75 1.5625 0.75 1.5625 1 4 C-0.13084437 6.50286409 -1.52139516 8.67007722 -3 11 C-3.99 10.67 -4.98 10.34 -6 10 C-5.34 10 -4.68 10 -4 10 C-3.896875 9.278125 -3.79375 8.55625 -3.6875 7.8125 C-2.94013068 4.75508007 -1.71954811 2.61670365 0 0 Z " fill="#F90067" transform="translate(440,366)"/>
<path d="M0 0 C0.66 0.33 1.32 0.66 2 1 C2 3.64 2 6.28 2 9 C0.68 7.35 -0.64 5.7 -2 4 C-1.34 2.68 -0.68 1.36 0 0 Z " fill="#FB003B" transform="translate(426,278)"/>
<path d="M0 0 C4.43458973 1.3937282 6.87378374 3.60582235 10 7 C5.04303419 5.76075855 2.88341534 4.21422242 0 0 Z " fill="#FF0020" transform="translate(717,107)"/>
<path d="M0 0 C0.33 0 0.66 0 1 0 C1.25 2.25 1.25 2.25 1 5 C-1 7.3125 -1 7.3125 -3 9 C-3 7.35 -3 5.7 -3 4 C-2.34 4 -1.68 4 -1 4 C-0.67 2.68 -0.34 1.36 0 0 Z " fill="#0E49FF" transform="translate(438,86)"/>
<path d="M0 0 C1.0326802 2.78823655 1.04509293 3.8677274 0.0625 6.75 C-0.288125 7.4925 -0.63875 8.235 -1 9 C-1.99 9 -2.98 9 -4 9 C-2.80100302 5.9168649 -1.52299523 2.93720508 0 0 Z " fill="#FF003C" transform="translate(452,663)"/>
<path d="M0 0 C3.24208567 0.35049575 4.61527704 0.56221181 6.8125 3.0625 C7.204375 3.701875 7.59625 4.34125 8 5 C4.5625 4.1875 4.5625 4.1875 1 3 C0.67 2.01 0.34 1.02 0 0 Z " fill="#FF071B" transform="translate(730,118)"/>
</svg>
